<?xml version="1.0" encoding="utf-8"?>
<!-- Generator: Adobe Illustrator 18.1.1, SVG Export Plug-In . SVG Version: 6.00 Build 0)  -->
<svg version="1.1" id="Layer_1" xmlns="http://www.w3.org/2000/svg" xmlns:xlink="http://www.w3.org/1999/xlink" x="0px" y="0px"
	 viewBox="0 0 83.1 37.1" enable-background="new 0 0 83.1 37.1" xml:space="preserve">
<path fill="#EF3A38" d="M45.2,3.6h-1.7V2.4h4.6v1.1h-1.7V8h-1.2V3.6z"/>
<path fill="#EF3A38" d="M49.1,2.4h1.2v2.2h2.3V2.4h1.2V8h-1.2V5.8h-2.3V8h-1.2V2.4z"/>
<path fill="#EF3A38" d="M55.2,2.4h4.2v1.1h-3v1.1H59v1.1h-2.6v1.2h3V8h-4.3V2.4z"/>
<path fill="#4C3518" d="M45.2,14h3.9c1,0,1.7,0.3,2.2,0.7c0.4,0.4,0.6,0.9,0.6,1.4v0c0,0.9-0.5,1.5-1.1,1.8c1,0.4,1.6,0.9,1.6,2.1v0
	c0,1.5-1.2,2.3-3.1,2.3h-4V14z M48.7,17.4c0.8,0,1.3-0.3,1.3-0.9v0c0-0.6-0.4-0.9-1.2-0.9H47v1.8H48.7z M49.2,20.8
	c0.8,0,1.3-0.3,1.3-0.9v0c0-0.6-0.4-0.9-1.4-0.9H47v1.8H49.2z"/>
<path fill="#4C3518" d="M53.9,14h3.8c1.1,0,1.9,0.3,2.4,0.9c0.5,0.5,0.7,1.1,0.7,1.9v0c0,1.4-0.7,2.2-1.8,2.6l2.1,3H59l-1.8-2.7
	h-1.5v2.7h-1.8V14z M57.6,18.1c0.9,0,1.4-0.5,1.4-1.2v0c0-0.8-0.6-1.2-1.5-1.2h-1.8v2.4H57.6z"/>
<path fill="#4C3518" d="M62.4,18.8V14h1.8v4.7c0,1.4,0.7,2.1,1.8,2.1s1.8-0.7,1.8-2V14h1.8v4.7c0,2.5-1.4,3.8-3.7,3.8
	C63.8,22.6,62.4,21.3,62.4,18.8z"/>
<path fill="#4C3518" d="M71.7,14h1.8v8.4h-1.8V14z"/>
<path fill="#4C3518" d="M75.7,14h1.7l3.9,5.2V14h1.8v8.4h-1.6l-4.1-5.3v5.3h-1.8V14z"/>
<path fill="#EF3A38" d="M44.9,32.7L44.9,32.7c0-2.4,1.8-4.4,4.4-4.4c1.6,0,2.5,0.5,3.3,1.3l-1.2,1.4c-0.6-0.6-1.3-0.9-2.1-0.9
	c-1.4,0-2.4,1.2-2.4,2.6v0c0,1.4,1,2.6,2.4,2.6c1,0,1.5-0.4,2.2-1l1.2,1.2c-0.9,0.9-1.8,1.5-3.4,1.5C46.7,37,44.9,35.1,44.9,32.7z"
	/>
<path fill="#EF3A38" d="M54.1,28.4h1.8v6.7h4.2v1.7h-6V28.4z"/>
<path fill="#EF3A38" d="M61.1,33.2v-4.8H63v4.7c0,1.4,0.7,2.1,1.8,2.1s1.8-0.7,1.8-2v-4.8h1.8v4.7c0,2.5-1.4,3.8-3.7,3.8
	C62.5,37,61.1,35.7,61.1,33.2z"/>
<path fill="#EF3A38" d="M70.3,28.4h3.9c1,0,1.7,0.3,2.2,0.7c0.4,0.4,0.6,0.9,0.6,1.4v0c0,0.9-0.5,1.5-1.1,1.8c1,0.4,1.6,0.9,1.6,2.1
	v0c0,1.5-1.2,2.3-3.1,2.3h-4V28.4z M73.8,31.8c0.8,0,1.3-0.3,1.3-0.9v0c0-0.6-0.4-0.9-1.2-0.9h-1.8v1.8H73.8z M74.3,35.2
	c0.8,0,1.3-0.3,1.3-0.9v0c0-0.6-0.4-0.9-1.4-0.9h-2.1v1.8H74.3z"/>
<g id="rolEoA.tif">
	<g>
		<path fill="#EF3A38" d="M26.3,37.1c-0.3,0-0.5,0-0.8,0c-0.1,0-0.2,0-0.3,0c-0.7,0-1.4-0.1-2.1-0.4c-1.1-0.5-2.3-0.6-3.5-0.7
			c-1.6,0-3.1,0.2-4.6,0.6c-0.7,0.2-1.3,0.4-2,0.6c-0.8,0-1.5,0-2.3,0c-0.1,0-0.2,0-0.3-0.1c-1.3-0.1-2.6-0.5-3.8-1.1
			c-1.3-0.7-2.4-1.7-3-3.1c-0.5-1.2-0.8-2.4-0.9-3.7c-0.1-1.2,0-2.5,0-3.8c0-0.3-0.1-0.5-0.3-0.6c-1.1-0.9-1.8-2.1-2.2-3.5
			c-0.1-0.5-0.2-1-0.3-1.5c0-0.4,0-0.8,0-1.2c0.1-0.2,0.1-0.5,0.2-0.7c0.2-1,0.7-1.8,1.2-2.6c0.1-0.1,0.1-0.3,0.1-0.4
			c0-0.4,0-0.9,0-1.3c0.2-1.6,0.9-3,2.1-4.1c1.1-1,2.4-1.7,3.9-1.7c0.3,0,0.4-0.1,0.5-0.4c0.4-2,1.6-3.4,3.3-4.5
			c1.3-0.8,2.6-1.3,4.1-0.8c0.1,0,0.2,0,0.3-0.1c0.3-0.3,0.6-0.6,0.9-0.8c0.5-0.5,1.2-0.7,1.9-0.8c0.2,0,0.4,0,0.6,0c0,0,0,0,0.1,0
			c1.1,0.2,2,0.7,2.8,1.6c0,0.1,0.2,0.1,0.3,0.1c0.5,0,1-0.2,1.5-0.1C26,2,27.8,3.1,28.9,5.1c0.4,0.6,0.6,1.4,0.9,2
			c0.1,0.2,0.2,0.3,0.4,0.3c0.3,0,0.6,0,0.9,0.1c1.5,0.3,2.7,1.1,3.7,2.2c0.6,0.7,1.2,1.5,1.3,2.5c0.1,0.7,0.1,1.4,0.1,2.1
			c0,0.2,0.1,0.4,0.2,0.5c0.5,0.7,0.9,1.4,1.1,2.2c0.1,0.5,0.2,0.9,0.3,1.4c0,0.3,0,0.7,0,1c-0.1,0.3-0.1,0.7-0.2,1
			c-0.4,1.7-1.4,3-2.6,4.1c-0.1,0.1-0.2,0.2-0.1,0.4c0,0.2,0,0.3,0.1,0.5c0.2,1.6,0.2,3.3-0.1,4.9c-0.3,1.5-0.9,2.9-2,4.1
			c-1.4,1.5-3.2,2.1-5.2,2.4C27.2,37,26.7,37,26.3,37.1z M8.9,9.2c-0.2,0-0.2,0-0.3,0c-1.3-0.2-2.4,0-3.4,0.8
			c-1.6,1.2-2.5,2.8-2.1,4.9c0,0.3,0,0.5-0.1,0.7C2.6,16,2.4,16.5,2.1,17c-0.3,0.6-0.6,1.3-0.6,2c0,2,0.8,3.6,2.3,4.8
			c0.6,0.5,0.6,0.5,0.5,1.2c-0.2,1.8-0.2,3.6,0.1,5.3c0.3,2,1.4,3.4,3.1,4.4c1.1,0.6,2.3,0.8,3.6,0.9c0.6,0,1.2,0.1,1.7-0.1
			c1.8-0.5,3.5-0.9,5.4-1c2-0.1,4,0.1,5.8,0.9c0.1,0.1,0.3,0.1,0.4,0.1c1.3,0.1,2.6,0.1,3.9-0.2c1.9-0.5,3.5-1.5,4.3-3.4
			c0.5-1.1,0.7-2.3,0.8-3.5c0.1-1.3,0-2.6-0.3-3.9c0-0.2,0-0.4,0.2-0.5c0.9-0.7,1.7-1.6,2.2-2.6c0.8-1.5,0.9-3,0.1-4.5
			c-0.3-0.5-0.6-1-0.9-1.4c-0.1-0.2-0.2-0.3-0.2-0.5c0-0.4,0-0.8,0-1.2c0-1.1-0.3-2-1-2.8c-1.2-1.4-2.6-2.2-4.5-1.8
			c-0.2,0-0.3,0-0.3-0.2c-0.3-0.7-0.6-1.4-0.8-2.1c-0.5-1.5-1.5-2.5-2.9-3.2c-1.2-0.6-2.3-0.7-3.4-0.1c-0.1,0-0.2,0.1-0.3,0.1
			c-0.1-0.1-0.1-0.2-0.2-0.4c-0.3-0.4-0.5-0.8-0.8-1.1c-1-1-2-1-3-0.1C17,2.5,16.7,3,16.4,3.4c-0.1,0.2-0.2,0.2-0.4,0.2
			c-0.4-0.1-0.9-0.2-1.3-0.3c-0.1,0-0.3-0.1-0.4,0c-2.2,0.2-4.3,2.3-4.7,4C9.4,7.9,9.1,8.5,8.9,9.2z"/>
		<path fill="#EF3A38" d="M31.3,27.6c0,0.7,0.1,1.3,0,2c-0.3,1.5-0.9,2.8-2.5,3.4c-1.2,0.5-2.3,0.7-3.6,0.4
			c-1.3-0.3-2.6-0.6-3.9-0.9c-1.8-0.5-3.6-0.3-5.4,0.2c-1.3,0.4-2.6,0.7-4,0.8c-1.5,0.1-2.8-0.1-4-1.1c-0.7-0.6-1.1-1.4-1.3-2.3
			c-0.4-1.6-0.2-3.3,0.1-4.9c0.3-1.7,1.5-2.5,3-2.8c0.2-0.1,0.4-0.1,0.7-0.1c0.4,0,0.8-0.2,1.1-0.5c1.4-1.4,3.1-1.9,5-1.6
			c0.2,0,0.3,0.1,0.5,0.2c0.8,0.5,1.7,0.7,2.6,0.5c0.2,0,0.3-0.1,0.5-0.2c0.8-0.5,1.6-0.7,2.5-0.6c0.3,0,0.7,0.1,1,0.1
			c0.7,0.1,1.3,0.5,1.8,0.9c0.7,0.5,1.4,0.9,2.1,1.3c0.4,0.2,0.8,0.3,1.3,0.3c0.5,0,0.8,0.2,1.1,0.5c0.8,0.7,1.2,1.6,1.3,2.6
			c0.1,0.6,0.1,1.3,0.2,2C31.4,27.6,31.4,27.6,31.3,27.6z"/>
		<path fill="#EF3A38" d="M16.1,14.3c0-0.8,0.1-1.7,0.4-2.5c0.3-0.6,0.6-1.1,1-1.6c0.7-0.9,2.3-0.6,2.9,0.2c0.8,1.1,1.2,2.3,1.2,3.6
			c0.1,0.9,0,1.7-0.3,2.5c-0.2,0.7-1.1,1.5-1.9,1.5c-0.5,0-1,0-1.5-0.1c-0.5-0.1-1-0.4-1.2-0.9C16.2,16.2,16.1,15.3,16.1,14.3z"/>
		<path fill="#EF3A38" d="M22.8,15.5c0-0.8,0.1-1.6,0.3-2.4c0.3-0.8,0.8-1.4,1.5-1.8c0.7-0.3,1.3-0.2,1.9,0.3c0.5,0.5,0.8,1.1,1,1.8
			c0.2,0.7,0.5,1.4,0.6,2.1c0.2,0.9,0.1,1.9-0.6,2.5c-0.7,0.7-1.6,1-2.6,0.7c-1.1-0.3-1.8-1-2.1-2.1C22.8,16.2,22.9,15.9,22.8,15.5z
			"/>
		<path fill="#EF3A38" d="M9.6,16.6c0-1.4,0.2-2.6,0.8-3.7c0.3-0.5,0.7-0.9,1-1.3c0.3-0.4,0.8-0.4,1.2-0.3c0.8,0.2,1.3,0.7,1.7,1.3
			c0.3,0.5,0.3,1,0.4,1.6c0.2,0.8,0.3,1.6,0.2,2.3c-0.3,1.5-1.5,2.4-3,2.3c-0.8,0-1.4-0.4-1.9-0.9C9.7,17.5,9.5,17,9.6,16.6z"/>
		<path fill="#EF3A38" d="M28.9,18.4c0-0.7,0.1-1.5,0.4-2.2c0.2-0.6,0.6-0.9,1.2-0.9c1.1,0,1.9,0.5,2.6,1.3c0.5,0.6,1,1.2,1,1.9
			c0.2,1.4-0.4,2.5-1.5,3.3c-0.4,0.3-0.8,0.2-1.3,0.1c-1-0.2-2.2-1.4-2.3-2.7C28.9,19,28.9,18.7,28.9,18.4z"/>
		<path fill="#EF3A38" d="M8.9,18.5c0,1.4-0.5,2.5-1.7,3.3c-1.1,0.7-1.7,0.6-2.6-0.3c-0.1-0.1-0.1-0.1-0.2-0.2
			C4,20.6,3.7,19.9,3.7,19c0-0.3,0.1-0.7,0.3-1c0.4-0.7,0.9-1.4,1.5-1.9c0.7-0.6,1.6-0.7,2.4-0.5c0.4,0.1,0.6,0.3,0.7,0.6
			C8.7,17,8.9,17.8,8.9,18.5C9,18.5,9,18.5,8.9,18.5z"/>
		<path fill="#EF3A38" d="M23.7,5.4c0.6,0.1,1,0.4,1.4,0.8c0.5,0.6,0.9,1.2,1.1,2c0.1,0.5,0.2,1-0.1,1.5c-0.2,0.3-0.4,0.6-0.8,0.5
			c-0.4,0-0.7-0.2-0.9-0.6c-0.1-0.2-0.2-0.4-0.2-0.6c0.1-1.1-0.2-2.2-0.5-3.3C23.8,5.6,23.7,5.5,23.7,5.4z"/>
		<path fill="#EF3A38" d="M13.9,5.4c-0.2,0.9-0.4,1.8-0.5,2.7c-0.1,0.4-0.1,0.8-0.1,1.2c0,0.4-0.3,0.8-0.8,0.9
			c-0.4,0.1-0.8-0.1-1-0.4c-0.3-0.5-0.2-1.1-0.1-1.7C11.9,6.8,12.7,6,13.9,5.4z"/>
		<path fill="#EF3A38" d="M18.8,3.8C19.5,5,20,6.2,19.7,7.5c-0.1,0.4-0.2,0.7-0.7,0.8c-0.3,0-0.5,0-0.7-0.3
			c-0.5-0.7-0.5-1.5-0.3-2.2C18.2,5.2,18.5,4.5,18.8,3.8z"/>
		<path fill="#EF3A38" d="M30.5,11.1c0.4,0.3,0.9,0.5,1.3,0.8c0.6,0.5,0.8,1.2,0.8,1.9c0,0.3-0.1,0.5-0.4,0.6
			c-0.3,0.1-0.7-0.1-0.8-0.4C30.9,13.2,30.6,12.2,30.5,11.1C30.5,11.2,30.5,11.1,30.5,11.1z"/>
		<path fill="#EF3A38" d="M7.3,11.4c-0.4,0.7-0.4,1.4-0.5,2c0,0.2-0.1,0.4-0.2,0.6c-0.2,0.4-0.6,0.6-1,0.5c-0.1,0-0.2-0.1-0.2-0.2
			c-0.2-0.5-0.3-0.9,0-1.4c0.4-0.6,0.8-1.1,1.4-1.4C6.9,11.4,7.1,11.4,7.3,11.4z"/>
	</g>
</g>
</svg>
